{
  "source": "C:\\Users\\Peter\\Desktop\\stuff\\MIUN\\quantitative_research\\video_compression\\videos\\BVI-HD\\ParkPlay_1920x1080_50fps.mp4",
  "output": "C:\\Users\\Peter\\Desktop\\stuff\\MIUN\\quantitative_research\\video_compression\\compressed_videos\\BVI-HD\\vp9\\12\\ParkPlay_1920x1080_50fps_vp9.webm",
  "codec": "vp9",
  "ok": "Input #0, mov,mp4,m4a,3gp,3g2,mj2, from 'C:\\Users\\Peter\\Desktop\\stuff\\MIUN\\quantitative_research\\video_compression\\videos\\BVI-HD\\ParkPlay_1920x1080_50fps.mp4':\n  Metadata:\n    major_brand     : isom\n    minor_version   : 512\n    compatible_brands: isomiso2avc1mp41\n    encoder         : Lavf54.28.101\n  Duration: 00:00:05.00, start: 0.000000, bitrate: 620563 kb/s\n  Stream #0:0[0x1](und): Video: h264 (High 4:4:4 Predictive) (avc1 / 0x31637661), yuv420p(progressive), 1920x1080, 620558 kb/s, 50 fps, 50 tbr, 50 tbn (default)\n    Metadata:\n      handler_name    : VideoHandler\n      vendor_id       : [0][0][0][0]\n[out#0/webm @ 0000027187ed9540] Codec AVOption b:a (set bitrate (in bits/s)) has not been used for any stream. The most likely reason is either wrong type (e.g. a video option with no video streams) or that it is a private option of some decoder which was not actually used for any stream.\nStream mapping:\n  Stream #0:0 -> #0:0 (h264 (native) -> vp9 (libvpx-vp9))\nPress [q] to stop, [?] for help\n[libvpx-vp9 @ 0000027187f668c0] v1.15.2-100-g40561f514\nOutput #0, webm, to 'C:\\Users\\Peter\\Desktop\\stuff\\MIUN\\quantitative_research\\video_compression\\compressed_videos\\BVI-HD\\vp9\\12\\ParkPlay_1920x1080_50fps_vp9.webm':\n  Metadata:\n    major_brand     : isom\n    minor_version   : 512\n    compatible_brands: isomiso2avc1mp41\n    encoder         : Lavf62.3.100\n  Stream #0:0(und): Video: vp9, yuv420p(tv, progressive), 1920x1080, q=2-31, 12000 kb/s, 50 fps, 1k tbn (default)\n    Metadata:\n      encoder         : Lavc62.11.100 libvpx-vp9\n      handler_name    : VideoHandler\n      vendor_id       : [0][0][0][0]\n    Side data:\n      cpb: bitrate max/min/avg: 0/0/0 buffer size: 12000000 vbv_delay: N/A\nframe=    0 fps=0.0 q=0.0 size=       0KiB time=N/A bitrate=N/A speed=N/A elapsed=0:00:00.51    \nframe=    0 fps=0.0 q=0.0 size=       0KiB time=N/A bitrate=N/A speed=N/A elapsed=0:00:01.08    \nframe=    1 fps=0.6 q=12.0 size=       1KiB time=00:00:00.02 bitrate= 253.6kbits/s speed=0.0121x elapsed=0:00:01.65    \nframe=    5 fps=2.3 q=45.0 size=       1KiB time=00:00:00.10 bitrate=  50.7kbits/s speed=0.046x elapsed=0:00:02.17    \nframe=    8 fps=2.9 q=42.0 size=       1KiB time=00:00:00.16 bitrate=  31.7kbits/s speed=0.0589x elapsed=0:00:02.71    \nframe=   11 fps=3.4 q=41.0 size=       1KiB time=00:00:00.22 bitrate=  23.1kbits/s speed=0.0679x elapsed=0:00:03.24    \nframe=   13 fps=3.4 q=41.0 size=       1KiB time=00:00:00.26 bitrate=  19.5kbits/s speed=0.0683x elapsed=0:00:03.80    \nframe=   16 fps=3.7 q=40.0 size=       1KiB time=00:00:00.32 bitrate=  15.8kbits/s speed=0.0738x elapsed=0:00:04.33    \nframe=   19 fps=3.9 q=39.0 size=       1KiB time=00:00:00.38 bitrate=  13.3kbits/s speed=0.078x elapsed=0:00:04.87    \nframe=   22 fps=4.1 q=39.0 size=       1KiB time=00:00:00.44 bitrate=  11.5kbits/s speed=0.0811x elapsed=0:00:05.42    \nframe=   23 fps=3.9 q=21.0 size=       1KiB time=00:00:00.46 bitrate=  11.0kbits/s speed=0.0774x elapsed=0:00:05.94    \nframe=   26 fps=4.0 q=39.0 size=       1KiB time=00:00:00.52 bitrate=   9.8kbits/s speed=0.0801x elapsed=0:00:06.48    \nframe=   29 fps=4.1 q=40.0 size=       1KiB time=00:00:00.58 bitrate=   8.7kbits/s speed=0.0823x elapsed=0:00:07.04    \nframe=   32 fps=4.2 q=41.0 size=       1KiB time=00:00:00.64 bitrate=   7.9kbits/s speed=0.0846x elapsed=0:00:07.56    \nframe=   35 fps=4.3 q=39.0 size=       1KiB time=00:00:00.70 bitrate=   7.2kbits/s speed=0.0864x elapsed=0:00:08.10    \nframe=   38 fps=4.4 q=39.0 size=       1KiB time=00:00:00.76 bitrate=   6.7kbits/s speed=0.0878x elapsed=0:00:08.65    \nframe=   40 fps=4.3 q=29.0 size=       1KiB time=00:00:00.80 bitrate=   6.3kbits/s speed=0.0868x elapsed=0:00:09.21    \nframe=   43 fps=4.4 q=39.0 size=       1KiB time=00:00:00.86 bitrate=   5.9kbits/s speed=0.0882x elapsed=0:00:09.74    \nframe=   45 fps=4.4 q=40.0 size=       1KiB time=00:00:00.90 bitrate=   5.6kbits/s speed=0.0875x elapsed=0:00:10.28    \nframe=   48 fps=4.4 q=40.0 size=       1KiB time=00:00:00.96 bitrate=   5.3kbits/s speed=0.0887x elapsed=0:00:10.81    \nframe=   51 fps=4.5 q=41.0 size=       1KiB time=00:00:01.02 bitrate=   5.0kbits/s speed=0.0897x elapsed=0:00:11.36    \nframe=   53 fps=4.4 q=42.0 size=       1KiB time=00:00:01.06 bitrate=   4.8kbits/s speed=0.0889x elapsed=0:00:11.91    \nframe=   56 fps=4.5 q=41.0 size=       1KiB time=00:00:01.12 bitrate=   4.5kbits/s speed=0.0897x elapsed=0:00:12.48    \nframe=   58 fps=4.5 q=29.0 size=       1KiB time=00:00:01.16 bitrate=   4.4kbits/s speed=0.0891x elapsed=0:00:13.01    \nframe=   61 fps=4.5 q=41.0 size=       1KiB time=00:00:01.22 bitrate=   4.2kbits/s speed=0.0901x elapsed=0:00:13.53    \nframe=   63 fps=4.5 q=41.0 size=       1KiB time=00:00:01.26 bitrate=   4.0kbits/s speed=0.0895x elapsed=0:00:14.07    \nframe=   66 fps=4.5 q=40.0 size=       1KiB time=00:00:01.32 bitrate=   3.8kbits/s speed=0.0905x elapsed=0:00:14.58    \nframe=   69 fps=4.6 q=41.0 size=       1KiB time=00:00:01.38 bitrate=   3.7kbits/s speed=0.0914x elapsed=0:00:15.10    \nframe=   71 fps=4.5 q=41.0 size=       1KiB time=00:00:01.42 bitrate=   3.6kbits/s speed=0.0908x elapsed=0:00:15.63    \nframe=   74 fps=4.6 q=39.0 size=       1KiB time=00:00:01.48 bitrate=   3.4kbits/s speed=0.0917x elapsed=0:00:16.14    \nframe=   77 fps=4.6 q=39.0 size=       1KiB time=00:00:01.54 bitrate=   3.3kbits/s speed=0.0924x elapsed=0:00:16.67    \nframe=   80 fps=4.6 q=38.0 size=       1KiB time=00:00:01.60 bitrate=   3.2kbits/s speed=0.0928x elapsed=0:00:17.23    \nframe=   82 fps=4.6 q=27.0 size=       1KiB time=00:00:01.64 bitrate=   3.1kbits/s speed=0.0923x elapsed=0:00:17.75    \nframe=   85 fps=4.6 q=38.0 size=       1KiB time=00:00:01.70 bitrate=   3.0kbits/s speed=0.0929x elapsed=0:00:18.29    \nframe=   87 fps=4.6 q=38.0 size=       1KiB time=00:00:01.74 bitrate=   2.9kbits/s speed=0.0924x elapsed=0:00:18.83    \nframe=   90 fps=4.6 q=38.0 size=       1KiB time=00:00:01.80 bitrate=   2.8kbits/s speed=0.0928x elapsed=0:00:19.38    \nframe=   93 fps=4.7 q=39.0 size=       1KiB time=00:00:01.86 bitrate=   2.7kbits/s speed=0.0933x elapsed=0:00:19.93    \nframe=   94 fps=4.6 q=27.0 size=       1KiB time=00:00:01.88 bitrate=   2.7kbits/s speed=0.092x elapsed=0:00:20.44    \nframe=   97 fps=4.6 q=39.0 size=       1KiB time=00:00:01.94 bitrate=   2.6kbits/s speed=0.0926x elapsed=0:00:20.95    \nframe=   99 fps=4.6 q=40.0 size=       1KiB time=00:00:01.98 bitrate=   2.6kbits/s speed=0.0921x elapsed=0:00:21.48    \nframe=  102 fps=4.6 q=40.0 size=       1KiB time=00:00:02.04 bitrate=   2.5kbits/s speed=0.0926x elapsed=0:00:22.02    \nframe=  104 fps=4.6 q=40.0 size=       1KiB time=00:00:02.08 bitrate=   2.4kbits/s speed=0.0923x elapsed=0:00:22.54    \nframe=  106 fps=4.6 q=29.0 size=       1KiB time=00:00:02.12 bitrate=   2.4kbits/s speed=0.0919x elapsed=0:00:23.06    \nframe=  109 fps=4.6 q=39.0 size=       1KiB time=00:00:02.18 bitrate=   2.3kbits/s speed=0.0924x elapsed=0:00:23.58    \nframe=  111 fps=4.6 q=39.0 size=       1KiB time=00:00:02.22 bitrate=   2.3kbits/s speed=0.0921x elapsed=0:00:24.11    \nframe=  113 fps=4.6 q=39.0 size=       1KiB time=00:00:02.26 bitrate=   2.2kbits/s speed=0.0917x elapsed=0:00:24.63    \nframe=  116 fps=4.6 q=39.0 size=       1KiB time=00:00:02.32 bitrate=   2.2kbits/s speed=0.0923x elapsed=0:00:25.14    \nframe=  117 fps=4.6 q=39.0 size=       1KiB time=00:00:02.34 bitrate=   2.2kbits/s speed=0.0911x elapsed=0:00:25.69    \nframe=  120 fps=4.6 q=36.0 size=       1KiB time=00:00:02.40 bitrate=   2.1kbits/s speed=0.0915x elapsed=0:00:26.21    \nframe=  123 fps=4.6 q=38.0 size=       1KiB time=00:00:02.46 bitrate=   2.1kbits/s speed=0.0919x elapsed=0:00:26.76    \nframe=  125 fps=4.6 q=38.0 size=       1KiB time=00:00:02.50 bitrate=   2.0kbits/s speed=0.0915x elapsed=0:00:27.30    \nframe=  127 fps=4.6 q=39.0 size=       1KiB time=00:00:02.54 bitrate=   2.0kbits/s speed=0.0913x elapsed=0:00:27.82    \nframe=  128 fps=4.5 q=39.0 size=       1KiB time=00:00:02.56 bitrate=   2.0kbits/s speed=0.0903x elapsed=0:00:28.33    \nframe=  131 fps=4.5 q=37.0 size=    4096KiB time=00:00:02.62 bitrate=12807.0kbits/s speed=0.0908x elapsed=0:00:28.85    \nframe=  134 fps=4.6 q=38.0 size=    4096KiB time=00:00:02.68 bitrate=12520.3kbits/s speed=0.0912x elapsed=0:00:29.38    \nframe=  137 fps=4.6 q=39.0 size=    4096KiB time=00:00:02.74 bitrate=12246.1kbits/s speed=0.0916x elapsed=0:00:29.92    \nframe=  139 fps=4.6 q=39.0 size=    4096KiB time=00:00:02.78 bitrate=12069.9kbits/s speed=0.0912x elapsed=0:00:30.47    \nframe=  142 fps=4.6 q=40.0 size=    4096KiB time=00:00:02.84 bitrate=11814.9kbits/s speed=0.0916x elapsed=0:00:30.99    \nframe=  144 fps=4.6 q=41.0 size=    4096KiB time=00:00:02.88 bitrate=11650.8kbits/s speed=0.0913x elapsed=0:00:31.54    \nframe=  146 fps=4.5 q=31.0 size=    4096KiB time=00:00:02.92 bitrate=11491.2kbits/s speed=0.091x elapsed=0:00:32.09    \nframe=  148 fps=4.5 q=40.0 size=    4096KiB time=00:00:02.96 bitrate=11336.0kbits/s speed=0.0907x elapsed=0:00:32.62    \nframe=  151 fps=4.6 q=41.0 size=    4096KiB time=00:00:03.02 bitrate=11110.7kbits/s speed=0.0911x elapsed=0:00:33.14    \nframe=  153 fps=4.5 q=41.0 size=    4096KiB time=00:00:03.06 bitrate=10965.5kbits/s speed=0.0909x elapsed=0:00:33.67    \nframe=  155 fps=4.5 q=40.0 size=    4096KiB time=00:00:03.10 bitrate=10824.0kbits/s speed=0.0906x elapsed=0:00:34.22    \nframe=  157 fps=4.5 q=41.0 size=    4096KiB time=00:00:03.14 bitrate=10686.1kbits/s speed=0.0904x elapsed=0:00:34.74    \nframe=  159 fps=4.5 q=41.0 size=    4096KiB time=00:00:03.18 bitrate=10551.7kbits/s speed=0.0902x elapsed=0:00:35.25    \nframe=  162 fps=4.5 q=41.0 size=    4096KiB time=00:00:03.24 bitrate=10356.3kbits/s speed=0.0906x elapsed=0:00:35.77    \nframe=  164 fps=4.5 q=31.0 size=    4096KiB time=00:00:03.28 bitrate=10230.0kbits/s speed=0.0903x elapsed=0:00:36.32    \nframe=  166 fps=4.5 q=40.0 size=    4096KiB time=00:00:03.32 bitrate=10106.8kbits/s speed=0.0901x elapsed=0:00:36.85    \nframe=  168 fps=4.5 q=40.0 size=    4096KiB time=00:00:03.36 bitrate=9986.4kbits/s speed=0.0899x elapsed=0:00:37.36    \nframe=  170 fps=4.5 q=31.0 size=    4096KiB time=00:00:03.40 bitrate=9869.0kbits/s speed=0.0897x elapsed=0:00:37.89    \nframe=  172 fps=4.5 q=40.0 size=    4096KiB time=00:00:03.44 bitrate=9754.2kbits/s speed=0.0895x elapsed=0:00:38.41    \nframe=  174 fps=4.5 q=41.0 size=    4096KiB time=00:00:03.48 bitrate=9642.1kbits/s speed=0.0894x elapsed=0:00:38.92    \nframe=  176 fps=4.5 q=31.0 size=    4096KiB time=00:00:03.52 bitrate=9532.5kbits/s speed=0.0892x elapsed=0:00:39.45    \nframe=  178 fps=4.5 q=40.0 size=    4096KiB time=00:00:03.56 bitrate=9425.4kbits/s speed=0.089x elapsed=0:00:39.98    \nframe=  181 fps=4.5 q=41.0 size=    4096KiB time=00:00:03.62 bitrate=9269.2kbits/s speed=0.0894x elapsed=0:00:40.50    \nframe=  182 fps=4.4 q=31.0 size=    4096KiB time=00:00:03.64 bitrate=9218.3kbits/s speed=0.0887x elapsed=0:00:41.05    \nframe=  185 fps=4.5 q=41.0 size=    4096KiB time=00:00:03.70 bitrate=9068.8kbits/s speed=0.089x elapsed=0:00:41.56    \nframe=  187 fps=4.4 q=41.0 size=    4096KiB time=00:00:03.74 bitrate=8971.8kbits/s speed=0.0888x elapsed=0:00:42.11    \nframe=  189 fps=4.4 q=39.0 size=    4096KiB time=00:00:03.78 bitrate=8876.8kbits/s speed=0.0886x elapsed=0:00:42.65    \nframe=  191 fps=4.4 q=38.0 size=    4096KiB time=00:00:03.82 bitrate=8783.9kbits/s speed=0.0885x elapsed=0:00:43.18    \nframe=  193 fps=4.4 q=39.0 size=    4096KiB time=00:00:03.86 bitrate=8692.9kbits/s speed=0.0883x elapsed=0:00:43.72    \nframe=  196 fps=4.4 q=39.0 size=    4096KiB time=00:00:03.92 bitrate=8559.8kbits/s speed=0.0886x elapsed=0:00:44.24    \nframe=  198 fps=4.4 q=39.0 size=    4096KiB time=00:00:03.96 bitrate=8473.3kbits/s speed=0.0884x elapsed=0:00:44.80    \nframe=  200 fps=4.4 q=42.0 size=    4096KiB time=00:00:04.00 bitrate=8388.6kbits/s speed=0.0882x elapsed=0:00:45.35    \nframe=  203 fps=4.4 q=41.0 size=    4096KiB time=00:00:04.06 bitrate=8264.6kbits/s speed=0.0885x elapsed=0:00:45.89    \nframe=  204 fps=4.4 q=41.0 size=    4096KiB time=00:00:04.08 bitrate=8224.1kbits/s speed=0.0878x elapsed=0:00:46.44    \nframe=  207 fps=4.4 q=40.0 size=    4096KiB time=00:00:04.14 bitrate=8104.9kbits/s speed=0.0881x elapsed=0:00:46.96    \nframe=  210 fps=4.4 q=41.0 size=    4096KiB time=00:00:04.20 bitrate=7989.2kbits/s speed=0.0885x elapsed=0:00:47.47    \nframe=  212 fps=4.4 q=41.0 size=    4096KiB time=00:00:04.24 bitrate=7913.8kbits/s speed=0.0883x elapsed=0:00:48.01    \nframe=  214 fps=4.4 q=40.0 size=    4096KiB time=00:00:04.28 bitrate=7839.8kbits/s speed=0.0882x elapsed=0:00:48.53    \nframe=  216 fps=4.4 q=40.0 size=    4096KiB time=00:00:04.32 bitrate=7767.2kbits/s speed=0.088x elapsed=0:00:49.06    \nframe=  219 fps=4.4 q=39.0 size=    4096KiB time=00:00:04.38 bitrate=7660.8kbits/s speed=0.0883x elapsed=0:00:49.60    \nframe=  221 fps=4.4 q=40.0 size=    4096KiB time=00:00:04.42 bitrate=7591.5kbits/s speed=0.0882x elapsed=0:00:50.13    \nframe=  223 fps=4.4 q=31.0 size=    4096KiB time=00:00:04.46 bitrate=7523.4kbits/s speed=0.088x elapsed=0:00:50.67    \nframe=  226 fps=4.4 q=40.0 size=    4096KiB time=00:00:04.52 bitrate=7423.5kbits/s speed=0.0883x elapsed=0:00:51.19    \nframe=  226 fps=4.4 q=40.0 size=    4096KiB time=00:00:04.52 bitrate=7423.5kbits/s speed=0.0874x elapsed=0:00:51.73    \nframe=  226 fps=4.3 q=40.0 size=    4096KiB time=00:00:04.52 bitrate=7423.5kbits/s speed=0.0864x elapsed=0:00:52.28    \nframe=  226 fps=4.3 q=40.0 size=    4096KiB time=00:00:04.52 bitrate=7423.5kbits/s speed=0.0856x elapsed=0:00:52.83    \nframe=  226 fps=4.2 q=40.0 size=    4096KiB time=00:00:04.52 bitrate=7423.5kbits/s speed=0.0847x elapsed=0:00:53.35    \nframe=  226 fps=4.2 q=40.0 size=    4096KiB time=00:00:04.52 bitrate=7423.5kbits/s speed=0.0839x elapsed=0:00:53.88    \nframe=  226 fps=4.2 q=40.0 size=    4096KiB time=00:00:04.52 bitrate=7423.5kbits/s speed=0.083x elapsed=0:00:54.44    \nframe=  226 fps=4.1 q=40.0 size=    4096KiB time=00:00:04.52 bitrate=7423.5kbits/s speed=0.0822x elapsed=0:00:54.96    \nframe=  226 fps=4.1 q=40.0 size=    4096KiB time=00:00:04.52 bitrate=7423.5kbits/s speed=0.0814x elapsed=0:00:55.49    \nframe=  226 fps=4.0 q=40.0 size=    4096KiB time=00:00:04.52 bitrate=7423.5kbits/s speed=0.0807x elapsed=0:00:56.03    \nframe=  226 fps=4.0 q=40.0 size=    4096KiB time=00:00:04.52 bitrate=7423.5kbits/s speed=0.0799x elapsed=0:00:56.56    \n[out#0/webm @ 0000027187ed9540] video:8005KiB audio:0KiB subtitle:0KiB other streams:0KiB global headers:0KiB muxing overhead: 0.032387%\nframe=  250 fps=4.4 q=42.0 Lsize=    8008KiB time=00:00:05.00 bitrate=13120.4kbits/s speed=0.0881x elapsed=0:00:56.72    \n",
  "seconds": 57.07583284378052,
  "probe_out": {}
}